<?xml version="1.0" standalone="yes"?>

<svg version="1.1" viewBox="0.0 0.0 892.0 348.0" fill="none" stroke="none" stroke-linecap="square" stroke-miterlimit="10" clip-path="url(#p.0)" xmlns="http://www.w3.org/2000/svg" xmlns:xlink="http://www.w3.org/1999/xlink"><clipPath id="p.0"><path d="m0 0l892.0 0l0 348.0l-892.0 0l0 -348.0z" clip-rule="nonzero"></path></clipPath><path fill="#000000" stroke="#000000" stroke-width="2.0" stroke-linejoin="round" stroke-linecap="butt" d="m301.15747 92.12798l438.84607 0l0 -82.173225l137.31146 164.34645l-137.31146 164.34647l0 -82.17325l-438.84607 0z" fill-rule="nonzero"></path><path fill="#ffffff" d="m313.5481 198.39632l0 -9.453125l28.890625 0l0 9.453125l-28.890625 0zm75.173615 22.984375l0 -7.0q-5.265625 8.25 -15.515625 8.25q-6.625 0 -12.203125 -3.65625q-5.5625 -3.65625 -8.625 -10.203125q-3.046875 -6.5625 -3.046875 -15.078125q0 -8.3125 2.765625 -15.078125q2.78125 -6.765625 8.3125 -10.359375q5.53125 -3.609375 12.375 -3.609375q5.015625 0 8.9375 2.125q3.921875 2.109375 6.375 5.5l0 -27.484375l9.359375 0l0 76.59375l-8.734375 0zm-29.71875 -27.6875q0 10.65625 4.484375 15.9375q4.5 5.265625 10.609375 5.265625q6.171875 0 10.46875 -5.03125q4.3125 -5.046875 4.3125 -15.390625q0 -11.390625 -4.390625 -16.71875q-4.375 -5.328125 -10.8125 -5.328125q-6.265625 0 -10.46875 5.125q-4.203125 5.109375 -4.203125 16.140625zm53.09839 -38.09375l0 -10.8125l9.40625 0l0 10.8125l-9.40625 0zm0 65.78125l0 -55.484375l9.40625 0l0 55.484375l-9.40625 0zm44.179962 -8.40625l1.34375 8.296875q-3.96875 0.84375 -7.09375 0.84375q-5.125 0 -7.953125 -1.625q-2.8125 -1.625 -3.96875 -4.25q-1.140625 -2.640625 -1.140625 -11.109375l0 -31.921875l-6.90625 0l0 -7.3125l6.90625 0l0 -13.734375l9.34375 -5.65625l0 19.390625l9.46875 0l0 7.3125l-9.46875 0l0 32.453125q0 4.015625 0.5 5.171875q0.5 1.140625 1.625 1.828125q1.125 0.671875 3.203125 0.671875q1.578125 0 4.140625 -0.359375zm5.585663 -19.34375q0 -15.40625 8.578125 -22.828125q7.15625 -6.15625 17.453125 -6.15625q11.4375 0 18.6875 7.5q7.2655945 7.484375 7.2655945 20.703125q0 10.71875 -3.2187195 16.859375q-3.203125 6.140625 -9.34375 9.53125q-6.140625 3.390625 -13.390625 3.390625q-11.65625 0 -18.84375 -7.46875q-7.1875 -7.46875 -7.1875 -21.53125zm9.671875 0q0 10.671875 4.640625 15.96875q4.65625 5.296875 11.71875 5.296875q7.0 0 11.640625 -5.328125q4.65625 -5.328125 4.65625 -16.25q0 -10.28125 -4.6875 -15.578125q-4.671875 -5.3125 -11.609375 -5.3125q-7.0625 0 -11.71875 5.28125q-4.640625 5.265625 -4.640625 15.921875zm53.051483 27.75l0 -55.484375l8.453125 0l0 8.40625q3.25 -5.90625 5.984375 -7.78125q2.75 -1.875 6.03125 -1.875q4.765625 0 9.671875 3.03125l-3.234375 8.71875q-3.453125 -2.03125 -6.90625 -2.03125q-3.078125 0 -5.53125 1.859375q-2.453125 1.84375 -3.5 5.140625q-1.5625 5.015625 -1.5625 10.96875l0 29.046875l-9.40625 0zm35.673645 -65.78125l0 -10.8125l9.40625 0l0 10.8125l-9.40625 0zm0 65.78125l0 -55.484375l9.40625 0l0 55.484375l-9.40625 0zm59.851807 -6.84375q-5.234375 4.4375 -10.0625 6.265625q-4.828125 1.828125 -10.375 1.828125q-9.140625 0 -14.0625 -4.46875q-4.90625 -4.46875 -4.90625 -11.40625q0 -4.078125 1.859375 -7.4375q1.859375 -3.375 4.859375 -5.40625q3.0 -2.046875 6.765625 -3.09375q2.765625 -0.734375 8.359375 -1.40625q11.390625 -1.359375 16.765625 -3.25q0.0625 -1.921875 0.0625 -2.453125q0 -5.75 -2.671875 -8.09375q-3.59375 -3.1875 -10.703125 -3.1875q-6.640625 0 -9.796875 2.328125q-3.15625 2.3125 -4.671875 8.21875l-9.203125 -1.25q1.25 -5.90625 4.125 -9.53125q2.875 -3.640625 8.3125 -5.59375q5.4375 -1.953125 12.59375 -1.953125q7.109375 0 11.546875 1.671875q4.4375 1.671875 6.515625 4.203125q2.09375 2.53125 2.9375 6.390625q0.46875 2.40625 0.46875 8.6875l0 12.53125q0 13.109375 0.59375 16.59375q0.609375 3.46875 2.390625 6.65625l-9.828125 0q-1.46875 -2.921875 -1.875 -6.84375zm-0.796875 -21.0q-5.109375 2.09375 -15.359375 3.546875q-5.796875 0.84375 -8.203125 1.890625q-2.390625 1.03125 -3.703125 3.046875q-1.3125 2.015625 -1.3125 4.46875q0 3.765625 2.84375 6.28125q2.859375 2.5 8.34375 2.5q5.4375 0 9.65625 -2.375q4.234375 -2.390625 6.234375 -6.515625q1.5 -3.1875 1.5 -9.40625l0 -3.4375zm23.692139 27.84375l0 -76.59375l9.40625 0l0 76.59375l-9.40625 0zm20.148743 -16.5625l9.296875 -1.46875q0.78125 5.59375 4.359375 8.578125q3.578125 2.96875 10.0 2.96875q6.484375 0 9.609375 -2.625q3.140625 -2.640625 3.140625 -6.203125q0 -3.1875 -2.765625 -5.015625q-1.9375 -1.25 -9.609375 -3.1875q-10.34375 -2.609375 -14.34375 -4.515625q-4.0 -1.90625 -6.0625 -5.265625q-2.0625 -3.375 -2.0625 -7.453125q0 -3.71875 1.6875 -6.875q1.703125 -3.15625 4.640625 -5.25q2.1875 -1.625 5.96875 -2.734375q3.796875 -1.125 8.125 -1.125q6.53125 0 11.46875 1.875q4.9375 1.875 7.28125 5.09375q2.359375 3.21875 3.25 8.59375l-9.1875 1.25q-0.640625 -4.28125 -3.640625 -6.671875q-3.0 -2.40625 -8.484375 -2.40625q-6.484375 0 -9.25 2.140625q-2.765625 2.140625 -2.765625 5.015625q0 1.828125 1.140625 3.28125q1.15625 1.515625 3.609375 2.515625q1.40625 0.515625 8.3125 2.40625q9.96875 2.65625 13.90625 4.359375q3.953125 1.6875 6.203125 4.9375q2.25 3.234375 2.25 8.046875q0 4.703125 -2.75 8.859375q-2.734375 4.140625 -7.90625 6.421875q-5.171875 2.265625 -11.703125 2.265625q-10.8125 0 -16.484375 -4.484375q-5.671875 -4.5 -7.234375 -13.328125z" fill-rule="nonzero"></path><path fill="#000000" d="m165.99472 256.2897l0 -162.48438l117.5 0l0 19.171875l-96.0 0l0 49.765633l89.890625 0l0 19.0625l-89.890625 0l0 55.3125l99.765625 0l0 19.171875l-121.265625 0z" fill-rule="nonzero"></path><path fill="#000000" stroke="#000000" stroke-width="2.0" stroke-linejoin="round" stroke-linecap="butt" d="m9.475709 93.90751l140.88188 0l0 160.78741l-140.88188 0z" fill-rule="nonzero"></path><path fill="#000000" d="m179.10536 301.75433l0 -10.546875l-9.171875 -14.5l5.921875 0l5.90625 9.90625l5.765625 -9.90625l5.828125 0l-9.203125 14.53125l0 10.515625l-5.046875 0zm15.396698 -9.328125q0 -2.390625 1.171875 -4.625q1.1875 -2.25 3.34375 -3.421875q2.15625 -1.1875 4.828125 -1.1875q4.125 0 6.75 2.6875q2.625 2.671875 2.625 6.75q0 4.125 -2.65625 6.828125q-2.65625 2.703125 -6.6875 2.703125q-2.5 0 -4.765625 -1.125q-2.25 -1.125 -3.4375 -3.296875q-1.171875 -2.1875 -1.171875 -5.3125zm4.921875 0.25q0 2.703125 1.28125 4.140625q1.28125 1.4375 3.15625 1.4375q1.875 0 3.140625 -1.4375q1.28125 -1.4375 1.28125 -4.171875q0 -2.671875 -1.28125 -4.09375q-1.265625 -1.4375 -3.140625 -1.4375q-1.875 0 -3.15625 1.4375q-1.28125 1.421875 -1.28125 4.125zm29.294418 9.078125l0 -2.71875q-0.984375 1.453125 -2.609375 2.296875q-1.609375 0.828125 -3.40625 0.828125q-1.828125 0 -3.28125 -0.796875q-1.453125 -0.8125 -2.109375 -2.265625q-0.640625 -1.453125 -0.640625 -4.015625l0 -11.484375l4.8125 0l0 8.34375q0 3.828125 0.25 4.703125q0.265625 0.859375 0.96875 1.359375q0.703125 0.5 1.78125 0.5q1.234375 0 2.203125 -0.671875q0.984375 -0.671875 1.328125 -1.671875q0.359375 -1.0 0.359375 -4.90625l0 -7.65625l4.8125 0l0 18.15625l-4.46875 0zm13.825668 0l-4.796875 0l0 -18.15625l4.453125 0l0 2.59375q1.140625 -1.828125 2.046875 -2.40625q0.921875 -0.59375 2.09375 -0.59375q1.640625 0 3.15625 0.90625l-1.484375 4.1875q-1.21875 -0.78125 -2.25 -0.78125q-1.015625 0 -1.71875 0.5625q-0.703125 0.546875 -1.109375 2.0q-0.390625 1.453125 -0.390625 6.078125l0 5.609375zm18.068558 1.203125l5.484375 0.65625q0.140625 0.953125 0.640625 1.3125q0.6875 0.515625 2.15625 0.515625q1.875 0 2.8125 -0.5625q0.640625 -0.375 0.953125 -1.203125q0.234375 -0.609375 0.234375 -2.21875l0 -2.640625q-2.15625 2.9375 -5.4375 2.9375q-3.65625 0 -5.796875 -3.09375q-1.671875 -2.4375 -1.671875 -6.078125q0 -4.5625 2.1875 -6.96875q2.203125 -2.421875 5.46875 -2.421875q3.359375 0 5.546875 2.953125l0 -2.546875l4.5 0l0 16.296875q0 3.203125 -0.53125 4.796875q-0.53125 1.59375 -1.484375 2.5q-0.953125 0.90625 -2.5625 1.40625q-1.59375 0.515625 -4.03125 0.515625q-4.625 0 -6.5625 -1.578125q-1.921875 -1.578125 -1.921875 -4.0q0 -0.25 0.015625 -0.578125zm4.296875 -10.65625q0 2.890625 1.109375 4.234375q1.125 1.34375 2.765625 1.34375q1.765625 0 2.96875 -1.375q1.21875 -1.375 1.21875 -4.078125q0 -2.828125 -1.171875 -4.1875q-1.15625 -1.375 -2.921875 -1.375q-1.734375 0 -2.859375 1.34375q-1.109375 1.34375 -1.109375 4.09375zm20.903809 -3.15625l-4.34375 -0.796875q0.734375 -2.625 2.515625 -3.890625q1.796875 -1.265625 5.34375 -1.265625q3.203125 0 4.78125 0.765625q1.578125 0.765625 2.21875 1.9375q0.640625 1.15625 0.640625 4.296875l-0.0625 5.59375q0 2.390625 0.234375 3.53125q0.234375 1.140625 0.859375 2.4375l-4.75 0q-0.1875 -0.484375 -0.453125 -1.421875q-0.125 -0.421875 -0.171875 -0.5625q-1.234375 1.203125 -2.640625 1.796875q-1.390625 0.59375 -2.984375 0.59375q-2.796875 0 -4.421875 -1.515625q-1.609375 -1.515625 -1.609375 -3.84375q0 -1.546875 0.734375 -2.75q0.734375 -1.203125 2.046875 -1.84375q1.328125 -0.640625 3.828125 -1.125q3.375 -0.625 4.671875 -1.171875l0 -0.484375q0 -1.375 -0.6875 -1.96875q-0.6875 -0.59375 -2.578125 -0.59375q-1.28125 0 -2.0 0.515625q-0.71875 0.5 -1.171875 1.765625zm6.4375 3.890625q-0.921875 0.3125 -2.921875 0.75q-2.0 0.421875 -2.625 0.828125q-0.9375 0.65625 -0.9375 1.6875q0 1.015625 0.75 1.75q0.75 0.734375 1.921875 0.734375q1.296875 0 2.46875 -0.859375q0.875 -0.65625 1.15625 -1.59375q0.1875 -0.609375 0.1875 -2.34375l0 -0.953125zm17.571014 -9.4375l0 3.828125l-3.28125 0l0 7.328125q0 2.21875 0.09375 2.59375q0.09375 0.359375 0.421875 0.59375q0.34375 0.234375 0.828125 0.234375q0.65625 0 1.921875 -0.453125l0.421875 3.71875q-1.6875 0.71875 -3.796875 0.71875q-1.296875 0 -2.34375 -0.4375q-1.046875 -0.4375 -1.53125 -1.125q-0.484375 -0.6875 -0.671875 -1.875q-0.15625 -0.828125 -0.15625 -3.375l0 -7.921875l-2.203125 0l0 -3.828125l2.203125 0l0 -3.59375l4.8125 -2.8125l0 6.40625l3.28125 0zm13.728302 12.375l4.796875 0.8125q-0.921875 2.625 -2.921875 4.0q-1.984375 1.375 -4.984375 1.375q-4.734375 0 -7.0 -3.09375q-1.796875 -2.46875 -1.796875 -6.25q0 -4.515625 2.359375 -7.0625q2.359375 -2.5625 5.96875 -2.5625q4.046875 0 6.390625 2.6875q2.34375 2.671875 2.234375 8.1875l-12.03125 0q0.046875 2.140625 1.15625 3.328125q1.125 1.1875 2.78125 1.1875q1.125 0 1.890625 -0.609375q0.765625 -0.625 1.15625 -2.0zm0.28125 -4.84375q-0.046875 -2.09375 -1.078125 -3.171875q-1.03125 -1.09375 -2.5 -1.09375q-1.5625 0 -2.59375 1.15625q-1.03125 1.140625 -1.0 3.109375l7.171875 0zm11.86792 10.625l-5.734375 -18.15625l4.65625 0l3.40625 11.90625l3.125 -11.90625l4.640625 0l3.015625 11.90625l3.46875 -11.90625l4.734375 0l-5.828125 18.15625l-4.609375 0l-3.125 -11.671875l-3.078125 11.671875l-4.671875 0zm27.159851 -12.609375l-4.34375 -0.796875q0.734375 -2.625 2.515625 -3.890625q1.796875 -1.265625 5.34375 -1.265625q3.203125 0 4.78125 0.765625q1.578125 0.765625 2.21875 1.9375q0.640625 1.15625 0.640625 4.296875l-0.0625 5.59375q0 2.390625 0.234375 3.53125q0.234375 1.140625 0.859375 2.4375l-4.75 0q-0.1875 -0.484375 -0.453125 -1.421875q-0.125 -0.421875 -0.171875 -0.5625q-1.234375 1.203125 -2.640625 1.796875q-1.390625 0.59375 -2.984375 0.59375q-2.796875 0 -4.421875 -1.515625q-1.609375 -1.515625 -1.609375 -3.84375q0 -1.546875 0.734375 -2.75q0.734375 -1.203125 2.046875 -1.84375q1.328125 -0.640625 3.828125 -1.125q3.375 -0.625 4.671875 -1.171875l0 -0.484375q0 -1.375 -0.6875 -1.96875q-0.6875 -0.59375 -2.578125 -0.59375q-1.28125 0 -2.0 0.515625q-0.71875 0.5 -1.171875 1.765625zm6.4375 3.890625q-0.921875 0.3125 -2.921875 0.75q-2.0 0.421875 -2.625 0.828125q-0.9375 0.65625 -0.9375 1.6875q0 1.015625 0.75 1.75q0.75 0.734375 1.921875 0.734375q1.296875 0 2.46875 -0.859375q0.875 -0.65625 1.15625 -1.59375q0.1875 -0.609375 0.1875 -2.34375l0 -0.953125zm6.977295 -9.4375l5.109375 0l4.34375 12.890625l4.234375 -12.890625l4.984375 0l-6.40625 17.46875l-1.15625 3.171875q-0.625 1.578125 -1.203125 2.421875q-0.5625 0.84375 -1.3125 1.359375q-0.75 0.515625 -1.84375 0.796875q-1.078125 0.296875 -2.4375 0.296875q-1.390625 0 -2.71875 -0.28125l-0.421875 -3.765625q1.125 0.21875 2.03125 0.21875q1.671875 0 2.46875 -0.984375q0.8125 -0.96875 1.234375 -2.5l-6.90625 -18.203125zm31.184021 -2.453125l0 -4.4375l4.796875 0l0 4.4375l-4.796875 0zm0 20.609375l0 -18.15625l4.796875 0l0 18.15625l-4.796875 0zm26.128601 0l-4.796875 0l0 -9.265625q0 -2.9375 -0.3125 -3.796875q-0.296875 -0.859375 -1.0 -1.34375q-0.6875 -0.484375 -1.65625 -0.484375q-1.25 0 -2.25 0.6875q-0.984375 0.6875 -1.359375 1.8125q-0.359375 1.125 -0.359375 4.171875l0 8.21875l-4.796875 0l0 -18.15625l4.453125 0l0 2.671875q2.375 -3.078125 5.984375 -3.078125q1.59375 0 2.90625 0.578125q1.3125 0.5625 1.984375 1.453125q0.671875 0.890625 0.9375 2.03125q0.265625 1.125 0.265625 3.21875l0 11.28125zm12.981903 -18.15625l0 3.828125l-3.28125 0l0 7.328125q0 2.21875 0.09375 2.59375q0.09375 0.359375 0.421875 0.59375q0.34375 0.234375 0.828125 0.234375q0.65625 0 1.921875 -0.453125l0.421875 3.71875q-1.6875 0.71875 -3.796875 0.71875q-1.296875 0 -2.34375 -0.4375q-1.046875 -0.4375 -1.53125 -1.125q-0.484375 -0.6875 -0.671875 -1.875q-0.15625 -0.828125 -0.15625 -3.375l0 -7.921875l-2.203125 0l0 -3.828125l2.203125 0l0 -3.59375l4.8125 -2.8125l0 6.40625l3.28125 0zm2.118927 8.828125q0 -2.390625 1.171875 -4.625q1.1875 -2.25 3.34375 -3.421875q2.15625 -1.1875 4.828125 -1.1875q4.125 0 6.75 2.6875q2.625 2.671875 2.625 6.75q0 4.125 -2.65625 6.828125q-2.65625 2.703125 -6.6875 2.703125q-2.5 0 -4.765625 -1.125q-2.25 -1.125 -3.4375 -3.296875q-1.171875 -2.1875 -1.171875 -5.3125zm4.921875 0.25q0 2.703125 1.28125 4.140625q1.28125 1.4375 3.15625 1.4375q1.875 0 3.140625 -1.4375q1.28125 -1.4375 1.28125 -4.171875q0 -2.671875 -1.28125 -4.09375q-1.265625 -1.4375 -3.140625 -1.4375q-1.875 0 -3.15625 1.4375q-1.28125 1.421875 -1.28125 4.125zm32.65738 9.078125l0 -20.8125l-7.4375 0l0 -4.234375l19.90625 0l0 4.234375l-7.40625 0l0 20.8125l-5.0625 0zm27.435059 0l0 -2.71875q-0.984375 1.453125 -2.609375 2.296875q-1.609375 0.828125 -3.40625 0.828125q-1.828125 0 -3.28125 -0.796875q-1.453125 -0.8125 -2.109375 -2.265625q-0.640625 -1.453125 -0.640625 -4.015625l0 -11.484375l4.8125 0l0 8.34375q0 3.828125 0.25 4.703125q0.265625 0.859375 0.96875 1.359375q0.703125 0.5 1.78125 0.5q1.234375 0 2.203125 -0.671875q0.984375 -0.671875 1.328125 -1.671875q0.359375 -1.0 0.359375 -4.90625l0 -7.65625l4.8125 0l0 18.15625l-4.46875 0zm13.825684 0l-4.796875 0l0 -18.15625l4.453125 0l0 2.59375q1.140625 -1.828125 2.046875 -2.40625q0.921875 -0.59375 2.09375 -0.59375q1.640625 0 3.15625 0.90625l-1.484375 4.1875q-1.21875 -0.78125 -2.25 -0.78125q-1.015625 0 -1.71875 0.5625q-0.703125 0.546875 -1.109375 2.0q-0.390625 1.453125 -0.390625 6.078125l0 5.609375zm8.721191 0l0 -25.046875l4.796875 0l0 13.28125l5.625 -6.390625l5.90625 0l-6.203125 6.640625l6.65625 11.515625l-5.171875 0l-4.578125 -8.15625l-2.234375 2.34375l0 5.8125l-4.796875 0zm29.946045 -5.78125l4.796875 0.8125q-0.921875 2.625 -2.921875 4.0q-1.984375 1.375 -4.984375 1.375q-4.734375 0 -7.0 -3.09375q-1.796875 -2.46875 -1.796875 -6.25q0 -4.515625 2.359375 -7.0625q2.359375 -2.5625 5.96875 -2.5625q4.046875 0 6.390625 2.6875q2.34375 2.671875 2.234375 8.1875l-12.03125 0q0.046875 2.140625 1.15625 3.328125q1.125 1.1875 2.78125 1.1875q1.125 0 1.890625 -0.609375q0.765625 -0.625 1.15625 -2.0zm0.28125 -4.84375q-0.046875 -2.09375 -1.078125 -3.171875q-1.03125 -1.09375 -2.5 -1.09375q-1.5625 0 -2.59375 1.15625q-1.03125 1.140625 -1.0 3.109375l7.171875 0zm6.21167 -7.53125l5.109375 0l4.34375 12.890625l4.234375 -12.890625l4.984375 0l-6.40625 17.46875l-1.15625 3.171875q-0.625 1.578125 -1.203125 2.421875q-0.5625 0.84375 -1.3125 1.359375q-0.75 0.515625 -1.84375 0.796875q-1.078125 0.296875 -2.4375 0.296875q-1.390625 0 -2.71875 -0.28125l-0.421875 -3.765625q1.125 0.21875 2.03125 0.21875q1.671875 0 2.46875 -0.984375q0.8125 -0.96875 1.234375 -2.5l-6.90625 -18.203125zm21.52417 2.0l-0.90625 -4.65625l0 -4.234375l5.21875 0l0 4.234375l-0.78125 4.65625l-3.53125 0zm6.584778 10.984375l4.8125 -0.734375q0.3125 1.390625 1.25 2.125q0.9375 0.71875 2.625 0.71875q1.859375 0 2.8125 -0.6875q0.625 -0.46875 0.625 -1.28125q0 -0.546875 -0.34375 -0.90625q-0.359375 -0.328125 -1.609375 -0.625q-5.796875 -1.28125 -7.359375 -2.34375q-2.15625 -1.46875 -2.15625 -4.078125q0 -2.359375 1.859375 -3.96875q1.875 -1.609375 5.78125 -1.609375q3.734375 0 5.53125 1.21875q1.8125 1.203125 2.5 3.59375l-4.53125 0.828125q-0.28125 -1.0625 -1.09375 -1.625q-0.8125 -0.5625 -2.3125 -0.5625q-1.90625 0 -2.71875 0.53125q-0.546875 0.375 -0.546875 0.96875q0 0.515625 0.46875 0.875q0.65625 0.484375 4.484375 1.359375q3.84375 0.859375 5.359375 2.125q1.515625 1.28125 1.515625 3.578125q0 2.5 -2.09375 4.296875q-2.078125 1.78125 -6.171875 1.78125q-3.703125 0 -5.875 -1.5q-2.15625 -1.5 -2.8125 -4.078125zm30.230957 -12.984375l4.421875 0l0 2.484375q2.375 -2.890625 5.65625 -2.890625q1.75 0 3.03125 0.71875q1.28125 0.71875 2.09375 2.171875q1.203125 -1.453125 2.578125 -2.171875q1.390625 -0.71875 2.96875 -0.71875q2.0 0 3.375 0.8125q1.390625 0.8125 2.078125 2.390625q0.484375 1.15625 0.484375 3.75l0 11.609375l-4.796875 0l0 -10.375q0 -2.703125 -0.5 -3.484375q-0.65625 -1.03125 -2.046875 -1.03125q-1.015625 0 -1.90625 0.625q-0.875 0.609375 -1.28125 1.796875q-0.390625 1.1875 -0.390625 3.75l0 8.71875l-4.796875 0l0 -9.953125q0 -2.640625 -0.265625 -3.40625q-0.25 -0.78125 -0.796875 -1.15625q-0.53125 -0.375 -1.453125 -0.375q-1.109375 0 -2.0 0.609375q-0.890625 0.59375 -1.28125 1.71875q-0.375 1.125 -0.375 3.75l0 8.8125l-4.796875 0l0 -18.15625zm31.174316 -2.453125l0 -4.4375l4.796875 0l0 4.4375l-4.796875 0zm0 20.609375l0 -18.15625l4.796875 0l0 18.15625l-4.796875 0zm26.12854 0l-4.796875 0l0 -9.265625q0 -2.9375 -0.3125 -3.796875q-0.296875 -0.859375 -1.0 -1.34375q-0.6875 -0.484375 -1.65625 -0.484375q-1.25 0 -2.25 0.6875q-0.984375 0.6875 -1.359375 1.8125q-0.359375 1.125 -0.359375 4.171875l0 8.21875l-4.796875 0l0 -18.15625l4.453125 0l0 2.671875q2.375 -3.078125 5.984375 -3.078125q1.59375 0 2.90625 0.578125q1.3125 0.5625 1.984375 1.453125q0.671875 0.890625 0.9375 2.03125q0.265625 1.125 0.265625 3.21875l0 11.28125zm21.310059 0l-4.453125 0l0 -2.671875q-1.109375 1.5625 -2.625 2.328125q-1.515625 0.75 -3.046875 0.75q-3.140625 0 -5.375 -2.515625q-2.21875 -2.515625 -2.21875 -7.03125q0 -4.609375 2.171875 -7.015625q2.171875 -2.40625 5.484375 -2.40625q3.046875 0 5.265625 2.53125l0 -9.015625l4.796875 0l0 25.046875zm-12.8125 -9.46875q0 2.90625 0.796875 4.203125q1.171875 1.875 3.25 1.875q1.65625 0 2.8125 -1.40625q1.171875 -1.40625 1.171875 -4.203125q0 -3.140625 -1.140625 -4.515625q-1.125 -1.375 -2.875 -1.375q-1.71875 0 -2.875 1.359375q-1.140625 1.359375 -1.140625 4.0625z" fill-rule="nonzero"></path></svg>

